<svg xmlns="http://www.w3.org/2000/svg">
  <symbol id="dashboard" viewBox="0 0 24 24"><path d="M4 13h6V4H4v9Zm0 7h6v-5H4v5Zm10 0h6v-9h-6v9Zm0-16v5h6V4h-6Z" fill="none" stroke="currentColor" stroke-width="1.8" stroke-linejoin="round"/></symbol>
  <symbol id="orders" viewBox="0 0 24 24"><path d="M7 3h10v3H7V3Zm-2 2H3v16h18V5h-2M7 11h10M7 15h7" fill="none" stroke="currentColor" stroke-width="1.8" stroke-linecap="round" stroke-linejoin="round"/></symbol>
  <symbol id="customer" viewBox="0 0 24 24"><path d="M12 12a4.5 4.5 0 1 0 0-9 4.5 4.5 0 0 0 0 9ZM4 21c0-4.4 3.6-7 8-7s8 2.6 8 7M18 8h3M19.5 6.5v3" fill="none" stroke="currentColor" stroke-width="1.8" stroke-linecap="round" stroke-linejoin="round"/></symbol>
  <symbol id="scan" viewBox="0 0 24 24"><path d="M4 8V4h4M16 4h4v4M20 16v4h-4M8 20H4v-4M8 8v8M11 8v8M15 8v8M18 8v8" fill="none" stroke="currentColor" stroke-width="1.8" stroke-linecap="round"/></symbol>
  <symbol id="truck" viewBox="0 0 24 24"><path d="M3 6h11v11H3V6Zm11 4h4l3 3v4h-7v-7ZM7 20a2 2 0 1 0 0-4 2 2 0 0 0 0 4Zm11 0a2 2 0 1 0 0-4 2 2 0 0 0 0 4Z" fill="none" stroke="currentColor" stroke-width="1.8" stroke-linejoin="round"/></symbol>
  <symbol id="automation" viewBox="0 0 24 24"><path d="M12 3v3M12 18v3M3 12h3M18 12h3M5.6 5.6l2.1 2.1M16.3 16.3l2.1 2.1M18.4 5.6l-2.1 2.1M7.7 16.3l-2.1 2.1M16 12a4 4 0 1 1-8 0 4 4 0 0 1 8 0Z" fill="none" stroke="currentColor" stroke-width="1.8" stroke-linecap="round"/></symbol>
  <symbol id="integration" viewBox="0 0 24 24"><path d="M8 7h8M8 17h8M5 10v4M19 10v4M8 4v6H4V4h4Zm12 10v6h-4v-6h4Zm-12 0v6H4v-6h4Zm12-10v6h-4V4h4Z" fill="none" stroke="currentColor" stroke-width="1.8" stroke-linecap="round" stroke-linejoin="round"/></symbol>
  <symbol id="audit" viewBox="0 0 24 24"><path d="M5 3h10l4 4v14H5V3Zm10 0v5h4M8 12h8M8 16h6" fill="none" stroke="currentColor" stroke-width="1.8" stroke-linecap="round" stroke-linejoin="round"/></symbol>
  <symbol id="users" viewBox="0 0 24 24"><path d="M9 11a4 4 0 1 0 0-8 4 4 0 0 0 0 8Zm-7 9c0-4 3-7 7-7s7 3 7 7M17 11a3 3 0 1 0 0-6M17 14c3 0 5 2 5 5" fill="none" stroke="currentColor" stroke-width="1.8" stroke-linecap="round"/></symbol>
  <symbol id="settings" viewBox="0 0 24 24"><path d="M12 8a4 4 0 1 0 0 8 4 4 0 0 0 0-8Zm8 4 2-1-2-4-2 .5a8 8 0 0 0-2-1L15 4h-6L8 6.5a8 8 0 0 0-2 1L4 7l-2 4 2 1a8 8 0 0 0 0 2l-2 1 2 4 2-.5a8 8 0 0 0 2 1L9 22h6l1-2.5a8 8 0 0 0 2-1l2 .5 2-4-2-1a8 8 0 0 0 0-2Z" fill="none" stroke="currentColor" stroke-width="1.6" stroke-linejoin="round"/></symbol>
  <symbol id="menu" viewBox="0 0 24 24"><path d="M4 7h16M4 12h16M4 17h16" fill="none" stroke="currentColor" stroke-width="2" stroke-linecap="round"/></symbol>
  <symbol id="close" viewBox="0 0 24 24"><path d="m6 6 12 12M18 6 6 18" fill="none" stroke="currentColor" stroke-width="2" stroke-linecap="round"/></symbol>
  <symbol id="chevron" viewBox="0 0 24 24"><path d="m9 6 6 6-6 6" fill="none" stroke="currentColor" stroke-width="2" stroke-linecap="round" stroke-linejoin="round"/></symbol>
  <symbol id="chevron-down" viewBox="0 0 24 24"><path d="m6 9 6 6 6-6" fill="none" stroke="currentColor" stroke-width="2" stroke-linecap="round" stroke-linejoin="round"/></symbol>
  <symbol id="bell" viewBox="0 0 24 24"><path d="M18 9a6 6 0 0 0-12 0c0 7-3 7-3 9h18c0-2-3-2-3-9ZM10 21h4" fill="none" stroke="currentColor" stroke-width="1.8" stroke-linecap="round" stroke-linejoin="round"/></symbol>
  <symbol id="shield" viewBox="0 0 24 24"><path d="M12 3 4 6v5c0 5 3 8 8 10 5-2 8-5 8-10V6l-8-3Zm-3 9 2 2 4-5" fill="none" stroke="currentColor" stroke-width="1.8" stroke-linecap="round" stroke-linejoin="round"/></symbol>
  <symbol id="search" viewBox="0 0 24 24"><circle cx="10.5" cy="10.5" r="6.5" fill="none" stroke="currentColor" stroke-width="1.9"/><path d="m15.5 15.5 5 5" fill="none" stroke="currentColor" stroke-width="1.9" stroke-linecap="round"/></symbol>
  <symbol id="filter" viewBox="0 0 24 24"><path d="M3 5h18l-7 8v6l-4 2v-8L3 5Z" fill="none" stroke="currentColor" stroke-width="1.8" stroke-linejoin="round"/></symbol>
  <symbol id="plus" viewBox="0 0 24 24"><path d="M12 5v14M5 12h14" fill="none" stroke="currentColor" stroke-width="2" stroke-linecap="round"/></symbol>
  <symbol id="arrow-right" viewBox="0 0 24 24"><path d="M5 12h14M14 7l5 5-5 5" fill="none" stroke="currentColor" stroke-width="1.9" stroke-linecap="round" stroke-linejoin="round"/></symbol>
  <symbol id="arrow-left" viewBox="0 0 24 24"><path d="M19 12H5M10 7l-5 5 5 5" fill="none" stroke="currentColor" stroke-width="1.9" stroke-linecap="round" stroke-linejoin="round"/></symbol>
  <symbol id="refresh" viewBox="0 0 24 24"><path d="M20 6v5h-5M4 18v-5h5M18 10a7 7 0 0 0-12-3L4 10m16 4-2 3a7 7 0 0 1-12-3" fill="none" stroke="currentColor" stroke-width="1.8" stroke-linecap="round" stroke-linejoin="round"/></symbol>
  <symbol id="pulse" viewBox="0 0 24 24"><path d="M3 12h4l2-6 4 12 2-6h6" fill="none" stroke="currentColor" stroke-width="1.9" stroke-linecap="round" stroke-linejoin="round"/></symbol>
  <symbol id="inbox" viewBox="0 0 24 24"><path d="M4 4h16l2 12v4H2v-4L4 4Zm-1.5 12H8l2 2h4l2-2h5.5" fill="none" stroke="currentColor" stroke-width="1.8" stroke-linejoin="round"/></symbol>
  <symbol id="box" viewBox="0 0 24 24"><path d="m3 7 9-4 9 4v10l-9 4-9-4V7Zm0 0 9 4 9-4M12 11v10M8 5l9 4" fill="none" stroke="currentColor" stroke-width="1.8" stroke-linejoin="round"/></symbol>
  <symbol id="alert" viewBox="0 0 24 24"><path d="M12 3 2 21h20L12 3Zm0 6v5m0 3v1" fill="none" stroke="currentColor" stroke-width="1.8" stroke-linecap="round" stroke-linejoin="round"/></symbol>
  <symbol id="info" viewBox="0 0 24 24"><circle cx="12" cy="12" r="9" fill="none" stroke="currentColor" stroke-width="1.8"/><path d="M12 11v6m0-10v1" fill="none" stroke="currentColor" stroke-width="2" stroke-linecap="round"/></symbol>
  <symbol id="check" viewBox="0 0 24 24"><path d="m5 12 4 4L19 6" fill="none" stroke="currentColor" stroke-width="2" stroke-linecap="round" stroke-linejoin="round"/></symbol>
  <symbol id="lock" viewBox="0 0 24 24"><rect x="4" y="10" width="16" height="11" rx="2" fill="none" stroke="currentColor" stroke-width="1.8"/><path d="M8 10V7a4 4 0 0 1 8 0v3M12 14v3" fill="none" stroke="currentColor" stroke-width="1.8" stroke-linecap="round"/></symbol>
  <symbol id="key" viewBox="0 0 24 24"><circle cx="8" cy="15" r="5" fill="none" stroke="currentColor" stroke-width="1.8"/><path d="m12 12 8-8m-3 3 3 3m-6 0 3 3" fill="none" stroke="currentColor" stroke-width="1.8" stroke-linecap="round" stroke-linejoin="round"/></symbol>
  <symbol id="mail" viewBox="0 0 24 24"><rect x="3" y="5" width="18" height="14" rx="2" fill="none" stroke="currentColor" stroke-width="1.8"/><path d="m4 7 8 6 8-6" fill="none" stroke="currentColor" stroke-width="1.8" stroke-linejoin="round"/></symbol>
  <symbol id="eye" viewBox="0 0 24 24"><path d="M2 12s4-7 10-7 10 7 10 7-4 7-10 7S2 12 2 12Zm13 0a3 3 0 1 1-6 0 3 3 0 0 1 6 0Z" fill="none" stroke="currentColor" stroke-width="1.8" stroke-linejoin="round"/></symbol>
  <symbol id="edit" viewBox="0 0 24 24"><path d="M4 20h4L20 8l-4-4L4 16v4Zm10-14 4 4" fill="none" stroke="currentColor" stroke-width="1.8" stroke-linejoin="round"/></symbol>
</svg>
